HIERARCHY
ROOT joint_Root
{
	OFFSET 0.0 0.0 0.0
	CHANNELS 6 Xposition Yposition Zposition Zrotation Xrotation Yrotation 
	JOINT Hips
	{
		OFFSET -0.726466 93.3139 -2.00062
		CHANNELS 6 Xposition Yposition Zposition Zrotation Xrotation Yrotation 
		JOINT Spine
		{
			OFFSET 15.7357 0.0 0.0
			CHANNELS 6 Xposition Yposition Zposition Zrotation Xrotation Yrotation 
			JOINT Chest
			{
				OFFSET 8.98455 -0.406207 0.0
				CHANNELS 6 Xposition Yposition Zposition Zrotation Xrotation Yrotation 
				JOINT Neck
				{
					OFFSET 16.3773 0.0 0.0
					CHANNELS 6 Xposition Yposition Zposition Zrotation Xrotation Yrotation 
					JOINT Head
					{
						OFFSET 6.45672 0.0 0.0
						CHANNELS 6 Xposition Yposition Zposition Zrotation Xrotation Yrotation 
						End Site
						{
							OFFSET 0.0 0.0 0.0
						}
					}
				}
				JOINT Shoulder_L
				{
					OFFSET 12.9942 -0.242716 4.98039
					CHANNELS 6 Xposition Yposition Zposition Zrotation Xrotation Yrotation 
					JOINT UpperArm_L
					{
						OFFSET 5.34809 0.0 0.0
						CHANNELS 6 Xposition Yposition Zposition Zrotation Xrotation Yrotation 
						JOINT LowerArm_L
						{
							OFFSET 24.3286 1.87007e-05 0.0
							CHANNELS 6 Xposition Yposition Zposition Zrotation Xrotation Yrotation 
							JOINT Hand_L
							{
								OFFSET 22.2916 0.0 0.0
								CHANNELS 6 Xposition Yposition Zposition Zrotation Xrotation Yrotation 
								End Site
								{
									OFFSET 0.0 0.0 0.0
								}
							}
						}
					}
				}
				JOINT Shoulder_R
				{
					OFFSET 12.9945 -0.242716 -4.98039
					CHANNELS 6 Xposition Yposition Zposition Zrotation Xrotation Yrotation 
					JOINT UpperArm_R
					{
						OFFSET -5.34813 0.0 0.0
						CHANNELS 6 Xposition Yposition Zposition Zrotation Xrotation Yrotation 
						JOINT LowerArm_R
						{
							OFFSET -24.3289 0.000322201 0.0
							CHANNELS 6 Xposition Yposition Zposition Zrotation Xrotation Yrotation 
							JOINT Hand_R
							{
								OFFSET -22.2915 -0.000108084 0.0
								CHANNELS 6 Xposition Yposition Zposition Zrotation Xrotation Yrotation 
								End Site
								{
									OFFSET 0.0 0.0 0.0
								}
							}
						}
					}
				}
			}
		}
		JOINT UpperLeg_L
		{
			OFFSET -2.19248 -6.46944 0.0
			CHANNELS 6 Xposition Yposition Zposition Zrotation Xrotation Yrotation 
			JOINT LowerLeg_L
			{
				OFFSET 39.0811 0.0 -1.23785e-05
				CHANNELS 6 Xposition Yposition Zposition Zrotation Xrotation Yrotation 
				JOINT Foot_L
				{
					OFFSET 40.9854 0.0 -1.26872e-05
					CHANNELS 6 Xposition Yposition Zposition Zrotation Xrotation Yrotation 
					JOINT Toes_L
					{
						OFFSET 11.7543 0.0 0.0
						CHANNELS 6 Xposition Yposition Zposition Zrotation Xrotation Yrotation 
						End Site
						{
							OFFSET 0.0 0.0 0.0
						}
					}
				}
			}
		}
		JOINT UpperLeg_R
		{
			OFFSET -2.19251 6.46944 0.0
			CHANNELS 6 Xposition Yposition Zposition Zrotation Xrotation Yrotation 
			JOINT LowerLeg_R
			{
				OFFSET -39.0811 -0.00228153 -0.0401928
				CHANNELS 6 Xposition Yposition Zposition Zrotation Xrotation Yrotation 
				JOINT Foot_R
				{
					OFFSET -40.9854 0.0 0.0
					CHANNELS 6 Xposition Yposition Zposition Zrotation Xrotation Yrotation 
					JOINT Toes_R
					{
						OFFSET -11.7543 0.0 0.0
						CHANNELS 6 Xposition Yposition Zposition Zrotation Xrotation Yrotation 
						End Site
						{
							OFFSET 0.0 0.0 0.0
						}
					}
				}
			}
		}
	}
}
MOTION
Frames:	6
Frame Time:	0.0333333
0.000000 0.000000 0.000000 0.000000 0.000000 -0.000000 1.719930 92.372800 -4.125700 87.473700 -2.873700 6.683360 15.735700 0.000005 -0.000001 90.775300 85.121200 -91.325800 8.984550 -0.406207 -0.000000 1.991750 0.159679 -1.102760 16.377300 -0.000001 -0.000001 6.552370 -2.626980 3.281320 6.456720 -0.000001 -0.000000 8.058600 -3.550080 -0.469870 12.994200 -0.242716 4.980390 -89.701100 -0.942252 -72.397700 5.348090 -0.000007 -0.000001 -66.763000 40.595800 -14.218200 24.328600 0.000019 0.000005 1.430630 3.609360 -21.638100 22.291600 -0.000001 0.000005 4.299580 5.506010 -6.777320 12.994500 -0.242716 -4.980390 90.038200 -0.119723 -72.301700 -5.348130 -0.000001 -0.000004 -76.802600 -24.548500 -94.359700 -24.328900 0.000322 -0.000009 12.935500 1.163590 -84.949000 -22.291500 -0.000108 -0.000004 22.270900 5.378820 -2.261530 -2.192480 -6.469440 -0.000000 -176.797000 -5.683640 -2.417100 39.081100 -0.000007 -0.000012 -0.046439 0.103399 24.186100 40.985400 -0.000006 -0.000013 1.408600 1.855100 -65.376300 11.754300 -0.000000 0.000003 -0.000037 -0.000435 -16.594500 -2.192510 6.469440 -0.000001 178.639000 12.276400 -179.326000 -39.081100 -0.002282 -0.040193 -0.009302 0.035138 19.760800 -40.985400 0.000008 0.000006 2.277150 7.698850 -63.909300 -11.754300 -0.000006 -0.000006 -0.007205 -0.081414 -19.887600
0.000000 0.000000 0.000000 0.000000 0.000000 -0.000000 1.698700 92.372200 -4.152550 87.476400 -2.832330 6.727100 15.735700 0.000005 -0.000001 90.437600 85.076800 -90.958600 8.984550 -0.406207 -0.000000 2.080820 0.101005 -1.042830 16.377300 -0.000001 -0.000001 6.517270 -2.676870 3.347780 6.456720 -0.000001 -0.000000 7.941180 -3.564980 -0.561605 12.994200 -0.242716 4.980390 -89.708800 -0.920739 -72.447200 5.348090 -0.000007 -0.000001 -66.741900 40.553400 -14.267300 24.328600 0.000019 0.000005 1.406840 3.555470 -21.603700 22.291600 -0.000001 0.000005 4.317560 5.506050 -6.779060 12.994500 -0.242716 -4.980390 90.019100 -0.059545 -72.247800 -5.348130 -0.000001 -0.000004 -76.266800 -24.653900 -93.684700 -24.328900 0.000322 -0.000009 12.121400 1.060010 -85.078800 -22.291500 -0.000108 -0.000004 22.565900 5.376690 -2.194720 -2.192480 -6.469440 -0.000000 -176.792000 -5.582400 -2.404370 39.081100 -0.000007 -0.000012 -0.046258 0.102937 24.198300 40.985400 -0.000006 -0.000013 1.387540 1.838520 -65.358600 11.754300 -0.000000 0.000003 -0.000038 -0.000448 -16.595000 -2.192510 6.469440 -0.000001 178.646000 12.280700 -179.309000 -39.081100 -0.002282 -0.040193 -0.009167 0.034724 19.782100 -40.985400 0.000008 0.000006 2.293580 7.686260 -63.908100 -11.754300 -0.000006 -0.000006 -0.007150 -0.080947 -19.868500
0.000000 0.000000 0.000000 0.000000 0.000000 -0.000000 1.665360 92.375400 -4.163560 87.499000 -2.814010 6.748900 15.735700 0.000005 -0.000001 90.076100 85.047400 -90.575500 8.984550 -0.406207 -0.000000 2.139530 0.037670 -0.998347 16.377300 -0.000001 -0.000001 6.465780 -2.677190 3.476540 6.456720 -0.000001 -0.000000 7.868390 -3.524310 -0.680325 12.994200 -0.242716 4.980390 -89.706900 -0.927362 -72.459800 5.348090 -0.000007 -0.000001 -66.768100 40.660700 -14.264500 24.328600 0.000019 0.000005 1.399860 3.531310 -21.639800 22.291600 -0.000001 0.000005 4.279540 5.505200 -6.744070 12.994500 -0.242716 -4.980390 89.985900 0.043761 -72.179100 -5.348130 -0.000001 -0.000004 -75.348300 -24.772800 -92.414500 -24.328900 0.000322 -0.000009 10.910100 0.859151 -85.554300 -22.291500 -0.000108 -0.000004 22.629400 5.378470 -2.250560 -2.192480 -6.469440 -0.000000 -176.781000 -5.661770 -2.380000 39.081100 -0.000007 -0.000012 -0.046369 0.103336 24.166600 40.985400 -0.000006 -0.000013 1.378580 1.893880 -65.329300 11.754300 -0.000000 0.000003 -0.000044 -0.000508 -16.597300 -2.192510 6.469440 -0.000001 178.653000 12.254400 -179.292000 -39.081100 -0.002282 -0.040193 -0.008961 0.034156 19.778300 -40.985400 0.000008 0.000006 2.266680 7.621330 -63.897200 -11.754300 -0.000006 -0.000006 -0.007188 -0.081272 -19.881800
0.000000 0.000000 0.000000 0.000000 0.000000 -0.000000 1.615170 92.369300 -4.191330 87.470300 -2.758670 6.740610 15.735700 0.000005 -0.000001 89.415300 85.019100 -89.881400 8.984550 -0.406207 -0.000000 2.195030 -0.078944 -0.929820 16.377300 -0.000001 -0.000001 6.416280 -2.684280 3.631160 6.456720 -0.000001 -0.000000 7.705840 -3.447760 -0.775578 12.994200 -0.242716 4.980390 -89.707500 -0.924474 -72.443300 5.348090 -0.000007 -0.000001 -66.798100 40.800300 -14.244800 24.328600 0.000019 0.000005 1.376470 3.453980 -21.743200 22.291600 -0.000001 0.000005 4.291150 5.505690 -6.764190 12.994500 -0.242716 -4.980390 89.935100 0.200837 -72.103700 -5.348130 -0.000001 -0.000004 -73.797200 -24.898000 -90.256800 -24.328900 0.000322 -0.000009 9.731170 0.586787 -86.585500 -22.291500 -0.000108 -0.000004 22.718200 5.378020 -2.236170 -2.192480 -6.469440 -0.000000 -176.731000 -5.538580 -2.456690 39.081100 -0.000007 -0.000012 -0.048731 0.108206 24.244700 40.985400 -0.000006 -0.000013 1.335990 1.870920 -65.337700 11.754300 -0.000000 0.000003 -0.000040 -0.000465 -16.595600 -2.192510 6.469440 -0.000001 178.723000 12.321500 -179.347000 -39.081100 -0.002282 -0.040193 -0.007922 0.031157 19.843000 -40.985400 0.000008 0.000006 2.379080 7.595480 -63.932300 -11.754300 -0.000006 -0.000006 -0.007133 -0.080797 -19.862400
0.000000 0.000000 0.000000 0.000000 0.000000 -0.000000 1.558450 92.364000 -4.192600 87.486500 -2.712330 6.788120 15.735700 0.000005 -0.000001 88.949000 84.977600 -89.412700 8.984550 -0.406207 -0.000000 2.276600 -0.161913 -0.923300 16.377300 -0.000001 -0.000001 6.307480 -2.706130 3.748220 6.456720 -0.000001 -0.000000 7.567220 -3.432680 -0.725688 12.994200 -0.242716 4.980390 -89.706600 -0.926868 -72.433600 5.348090 -0.000007 -0.000001 -66.842600 40.980300 -14.187200 24.328600 0.000019 0.000005 1.339690 3.331150 -21.922600 22.291600 -0.000001 0.000005 4.194390 5.506420 -6.794220 12.994500 -0.242716 -4.980390 89.839000 0.496026 -72.014400 -5.348130 -0.000001 -0.000004 -71.467500 -24.944100 -86.920700 -24.328900 0.000322 -0.000009 8.743120 0.255568 -88.342300 -22.291500 -0.000108 -0.000004 22.706500 5.378850 -2.262210 -2.192480 -6.469440 -0.000000 -176.715000 -5.494160 -2.426420 39.081100 -0.000007 -0.000012 -0.047941 0.106329 24.269600 40.985400 -0.000006 -0.000013 1.295300 1.846680 -65.344800 11.754300 -0.000000 0.000003 -0.000042 -0.000483 -16.596400 -2.192510 6.469440 -0.000001 178.742000 12.296300 -179.326000 -39.081100 -0.002282 -0.040193 -0.008545 0.032772 19.905800 -40.985400 0.000008 0.000006 2.407430 7.539860 -63.975800 -11.754300 -0.000006 -0.000006 -0.007122 -0.080704 -19.858600
0.000000 0.000000 0.000000 0.000000 0.000000 -0.000000 1.493750 92.371100 -4.191240 87.499400 -2.701980 6.835310 15.735700 0.000005 -0.000001 88.350300 84.944600 -88.817000 8.984550 -0.406207 -0.000000 2.339700 -0.268760 -0.926982 16.377300 -0.000001 -0.000001 6.201100 -2.739770 3.752690 6.456720 -0.000001 -0.000000 7.417170 -3.429540 -0.552828 12.994200 -0.242716 4.980390 -89.721700 -0.877723 -72.408200 5.348090 -0.000007 -0.000001 -66.897800 41.076800 -14.040300 24.328600 0.000019 0.000005 1.338340 3.303580 -22.067800 22.291600 -0.000001 0.000005 4.194270 5.507100 -6.821840 12.994500 -0.242716 -4.980390 89.715800 0.877284 -72.051800 -5.348130 -0.000001 -0.000004 -68.299900 -24.710500 -82.279700 -24.328900 0.000322 -0.000009 8.071960 -0.112335 -90.794100 -22.291500 -0.000108 -0.000004 22.585800 5.378020 -2.237030 -2.192480 -6.469440 -0.000000 -176.683000 -5.425610 -2.338720 39.081100 -0.000007 -0.000012 -0.049819 0.110823 24.205900 40.985400 -0.000006 -0.000013 1.243880 1.835930 -65.318600 11.754300 -0.000000 0.000003 -0.000040 -0.000466 -16.595700 -2.192510 6.469440 -0.000001 178.788000 12.277400 -179.279000 -39.081100 -0.002282 -0.040193 -0.004543 0.021714 19.910100 -40.985400 0.000008 0.000006 2.613340 7.466950 -64.015500 -11.754300 -0.000006 -0.000006 -0.007019 -0.079828 -19.822900
